<svg xmlns="http://www.w3.org/2000/svg" xmlns:xlink="http://www.w3.org/1999/xlink" version="1.1" width="1000" height="1000" viewBox="0 0 1000 1000" xml:space="preserve">
<desc>Created with Fabric.js 3.5.0</desc>
<defs>
</defs>
<rect x="0" y="0" width="100%" height="100%" fill="#ffffff"/>
<g transform="matrix(3.0695 0 0 3.0695 457.349 516.035)" id="Layer_1">
<path style="stroke: none; stroke-width: 1; stroke-dasharray: none; stroke-linecap: butt; stroke-dashoffset: 0; stroke-linejoin: miter; stroke-miterlimit: 4; is-custom-font: none; font-file-url: none; fill: rgb(6,130,255); fill-rule: nonzero; opacity: 1;" transform=" translate(-312.2129, -194.1738)" d="M 261.318237 290.266846 C 264.340302 283.567291 267.274475 282.436462 274.202454 284.930695 C 293.459686 291.8638 311.265076 289.026428 327.411133 276.590912 C 358.50528 252.642456 353.548004 203.644119 318.433319 185.31488 C 311.713837 181.807404 304.791168 178.042221 299.295929 172.9552 C 281.400146 156.388809 278.664124 128.925903 292.037292 108.004402 C 304.778564 88.071449 331.307129 79.385872 353.600647 87.848267 C 359.117157 89.942284 361.364624 93.601318 359.834839 97.997955 C 358.302765 102.401329 354.298462 104.294624 348.70166 102.141083 C 331.787079 95.632675 311.781372 103.711365 303.698029 118.263931 C 294.102417 135.539108 299.704834 158.351364 317.248749 167.617935 C 328.395966 173.505829 338.916687 179.757385 347.258728 189.494354 C 377.156281 224.391388 362.890747 281.52066 320.102142 298.365387 C 302.685913 305.22168 285.460419 305.59256 267.99762 298.951233 C 264.045197 297.448059 261.507477 295.027985 261.318237 290.266846 z" stroke-linecap="round"/>
</g>
<g transform="matrix(3.0695 0 0 3.0695 613.1418 634.1608)" id="Layer_1">
<path style="stroke: none; stroke-width: 1; stroke-dasharray: none; stroke-linecap: butt; stroke-dashoffset: 0; stroke-linejoin: miter; stroke-miterlimit: 4; is-custom-font: none; font-file-url: none; fill: rgb(237,34,42); fill-rule: nonzero; opacity: 1;" transform=" translate(-362.9674, -232.657)" d="M 391.473389 277.605713 C 381.425964 299.973083 365.724213 316.641327 344.81778 328.540985 C 341.302917 330.541565 337.760895 331.852509 334.19989 328.867767 C 329.791534 325.172852 330.785736 319.664551 335.986511 315.979279 C 343.559479 310.612946 351.70813 305.738037 358.231781 299.26355 C 403.537445 254.299652 390.694733 178.897049 333.256439 150.898376 C 332.059723 150.315018 330.828552 149.784241 329.692261 149.098328 C 325.659912 146.664261 324.161041 142.603561 325.891541 138.979752 C 327.738953 135.11113 332.095215 133.550125 336.574585 135.59053 C 349.575287 141.512482 361.486603 149.140472 371.024139 159.890945 C 401.94342 194.742172 408.716827 233.936539 391.473389 277.605713 z" stroke-linecap="round"/>
</g>
<g transform="matrix(3.0695 0 0 3.0695 402.3355 601.4262)" id="Layer_1">
<path style="stroke: none; stroke-width: 1; stroke-dasharray: none; stroke-linecap: butt; stroke-dashoffset: 0; stroke-linejoin: miter; stroke-miterlimit: 4; is-custom-font: none; font-file-url: none; fill: rgb(57,170,87); fill-rule: nonzero; opacity: 1;" transform=" translate(-294.2902, -221.9921)" d="M 264.440674 190.329773 C 262.306091 185.987 262.856018 182.396683 266.698364 179.981094 C 270.716064 177.455231 274.442535 178.627365 277.345856 182.101807 C 285.383118 191.720123 295.310852 198.580139 306.480072 204.276794 C 325.970978 214.217728 331.113434 236.468475 318.482666 253.134293 C 310.638794 263.483978 296.090454 267.944031 283.524323 263.85141 C 277.678192 261.947388 275.110413 258.212524 276.516632 253.658524 C 277.862915 249.298569 281.856384 247.470627 287.598083 249.151215 C 294.054901 251.041107 299.869324 250.271362 304.772797 245.625595 C 313.176636 237.663345 311.623779 225.011505 301.520691 218.914719 C 296.116425 215.653458 290.019897 213.340973 285.132141 209.468857 C 277.881073 203.724487 271.425598 196.975861 264.440674 190.329773 z" stroke-linecap="round"/>
</g>
<g transform="matrix(3.0695 0 0 3.0695 389.8976 162.4498)" id="Layer_1">
<path style="stroke: none; stroke-width: 1; stroke-dasharray: none; stroke-linecap: butt; stroke-dashoffset: 0; stroke-linejoin: miter; stroke-miterlimit: 4; is-custom-font: none; font-file-url: none; fill: rgb(248,161,20); fill-rule: nonzero; opacity: 1;" transform=" translate(-290.2383, -78.9811)" d="M 297.960236 70.796059 C 284.049652 78.668991 273.83551 89.502159 267.246155 103.701195 C 266.895935 104.455864 266.524597 105.204048 266.111237 105.925537 C 263.66153 110.201355 259.530396 111.773987 255.665283 109.919334 C 251.818451 108.073463 250.347565 103.700981 252.367889 99.225624 C 257.070435 88.808678 263.332855 79.402481 271.635712 71.516037 C 284.735535 59.073189 300.031952 50.775501 317.960754 47.56974 C 323.767761 46.53141 327.63501 48.235363 328.750061 52.709236 C 329.928131 57.435974 327.124481 60.768253 321.272339 62.617764 C 313.539642 65.061615 305.944672 67.94136 297.960236 70.796059 z" stroke-linecap="round"/>
</g>
</svg>